<?xml version="1.0" encoding="UTF-8" standalone="no"?><!DOCTYPE svg PUBLIC "-//W3C//DTD SVG 1.1//EN" "http://www.w3.org/Graphics/SVG/1.1/DTD/svg11.dtd"><svg width="100%" height="100%" viewBox="0 0 1024 1024" version="1.1" xmlns="http://www.w3.org/2000/svg" xmlns:xlink="http://www.w3.org/1999/xlink" xml:space="preserve" xmlns:serif="http://www.serif.com/" style="fill-rule:evenodd;clip-rule:evenodd;stroke-linecap:round;stroke-linejoin:round;stroke-miterlimit:1.5;"><circle cx="64.009" cy="667.744" r="48.37"/><circle cx="966.44" cy="705.386" r="41.921"/><path d="M43.049,625.501c3.52,-20.252 7.043,-40.512 11.286,-60.624c3.606,-17.092 7.906,-34.033 12.254,-50.951c12.267,-47.728 16.546,-70.483 40.953,-113.993c26.516,-47.267 70.384,-82.568 118.992,-104.802c11.099,-5.078 22.133,-10.773 34.02,-13.544c32.303,-7.531 56.893,-5.708 89.002,0.967c20.616,4.286 62.489,17.2 82.552,27.41c12.439,6.331 24.126,14.122 35.472,22.251c24.437,17.507 45.51,38.721 58.689,66.106c4.588,9.534 0.74,30.511 11.287,29.667c11.341,-0.907 8.322,-21.185 12.898,-31.602c3.597,-8.187 6.955,-16.55 11.609,-24.185c9.538,-15.646 23.714,-31.169 37.407,-43.211c7.992,-7.029 16.002,-14.234 25.153,-19.671c9.27,-5.507 19.733,-8.704 29.667,-12.898c9.415,-3.976 18.428,-9.271 28.377,-11.609c53.972,-12.685 111.164,-3.884 162.525,14.511c23.352,8.363 48.217,18.81 68.363,33.537c28.116,20.551 48.679,48.633 62.882,79.972c9.389,20.717 20.264,48.374 23.54,71.266c6.599,46.105 0.81,91.376 -5.482,137.049c-1.319,9.578 -2.687,19.15 -4.192,28.7c-1.29,8.187 2.51,19.632 -4.192,24.508c-11.756,8.554 -30.052,16.914 -42.566,9.513c-12.932,-7.649 -9.115,-28.635 -13.866,-42.889c-7.151,-21.453 -8.51,-26.024 -18.381,-45.468c-10.738,-21.15 -10.973,-20.993 -26.12,-39.341c-5.511,-6.676 -10.177,-14.22 -16.768,-19.832c-8.4,-7.151 -18.122,-12.644 -27.733,-18.058c-36.365,-20.485 -76.096,-24.697 -117.379,-21.209c-11.099,0.938 -36.752,10.328 -45.952,16.694c-10.542,7.295 -23.311,24.807 -29.667,35.472c-9.881,16.58 -19.095,34.239 -23.056,53.368c-2.018,9.741 -3.102,19.721 -3.225,29.668c-0.093,7.466 1.615,14.846 2.58,22.25c0.54,4.153 2.499,8.265 1.934,12.415c-1.189,8.734 1.666,24.494 -7.094,25.475c-59.625,6.682 -120.511,3.745 -179.938,-4.514c-8.001,-1.112 -8.428,-14.074 -10.319,-21.928c-6.557,-27.237 1.156,-28.74 -8.868,-54.82c-7.46,-19.41 -17.434,-32.084 -30.957,-48.048c-17.077,-20.159 -27.899,-31.231 -49.66,-46.113c-7.55,-5.163 -15.207,-10.59 -23.863,-13.544c-12.964,-4.424 -42.436,-8.641 -58.045,-6.375c-8.512,1.235 -16.681,4.268 -24.83,7.02c-10.572,3.571 -21.343,6.853 -31.279,11.931c-15.074,7.705 -31.476,20.944 -44.179,32.57c-7.065,6.467 -14.685,12.489 -20.638,19.993c-7.844,9.889 -21.765,39.712 -26.281,50.305c-4.752,11.146 -1.164,32.668 -13.221,33.86c-19.973,1.973 -38.525,-14.105 -53.691,-27.249Z" style="fill:#421987;stroke:#000;stroke-width:20px;"/></svg>