<?xml version="1.0" standalone="no"?>
<!DOCTYPE svg PUBLIC "-//W3C//DTD SVG 20010904//EN"
 "http://www.w3.org/TR/2001/REC-SVG-20010904/DTD/svg10.dtd">
<svg version="1.0" xmlns="http://www.w3.org/2000/svg"
 width="512.000000pt" height="512.000000pt" viewBox="0 0 512.000000 512.000000"
 preserveAspectRatio="xMidYMid meet">
<metadata>
Created by potrace 1.14, written by Peter Selinger 2001-2017
</metadata>
<g transform="translate(0.000000,512.000000) scale(0.100000,-0.100000)"
fill="#000000" stroke="none">
<path d="M1415 4143 c-11 -1 -46 -5 -78 -8 -31 -4 -63 -13 -71 -20 -7 -7 -28
-21 -47 -30 -59 -27 -119 -66 -119 -76 0 -6 -4 -8 -9 -5 -4 3 -27 -12 -49 -34
-22 -22 -45 -40 -50 -40 -14 0 -172 -152 -172 -166 0 -7 -3 -14 -7 -16 -24
-10 -193 -262 -193 -287 0 -6 -4 -11 -9 -11 -9 0 -96 -183 -107 -224 -3 -14
-10 -26 -15 -26 -5 0 -9 -8 -9 -17 -1 -10 -8 -36 -16 -58 -9 -22 -17 -47 -18
-55 -2 -8 -9 -28 -16 -45 -7 -16 -13 -42 -14 -57 0 -16 -4 -28 -8 -28 -5 0 -7
-3 -7 -7 1 -5 0 -10 -1 -13 -5 -15 -11 -51 -15 -104 -2 -32 -8 -63 -13 -70 -5
-6 -8 -24 -8 -41 1 -16 -2 -32 -6 -35 -3 -3 -9 -30 -13 -60 -3 -30 -11 -75
-17 -100 -5 -25 -12 -63 -14 -85 -4 -39 -11 -80 -14 -80 -2 0 -11 -78 -13
-127 -2 -26 -6 -51 -10 -54 -4 -4 -7 -23 -7 -43 -1 -20 -6 -61 -13 -91 -7 -30
-13 -69 -12 -87 0 -17 -3 -29 -6 -27 -3 1 -5 -34 -5 -79 1 -65 -2 -85 -16 -98
-9 -8 -23 -34 -30 -57 -7 -23 -16 -42 -20 -42 -5 0 -8 -10 -8 -23 0 -13 -5
-28 -11 -34 -13 -13 -22 -151 -11 -167 3 -6 7 -20 8 -31 0 -11 4 -34 9 -50 5
-17 7 -34 6 -38 -3 -14 22 -77 31 -77 4 0 7 -3 6 -7 -2 -5 5 -19 14 -31 30
-44 121 -59 190 -33 43 16 105 88 119 139 20 69 18 221 -3 252 -9 14 -14 34
-12 46 8 47 97 342 125 414 28 75 126 240 192 324 93 121 225 230 351 291 52
24 74 29 161 32 82 2 113 -1 163 -18 38 -13 59 -25 55 -31 -3 -6 -1 -8 5 -4 6
3 17 -1 25 -9 9 -8 21 -15 27 -15 12 0 158 -147 198 -200 15 -19 32 -39 38
-45 23 -21 106 -158 153 -252 86 -172 118 -299 126 -494 4 -108 40 -248 64
-250 26 -3 105 -9 116 -10 17 -1 148 10 185 15 19 3 58 8 85 11 28 3 75 8 105
11 65 7 53 7 158 0 46 -3 89 -9 95 -13 7 -4 17 -8 22 -8 25 -2 65 -18 65 -26
0 -16 49 -9 59 9 12 24 24 135 21 207 -4 106 -2 308 4 370 13 135 80 348 145
465 13 25 30 55 36 67 6 11 40 50 74 86 108 112 211 149 403 143 l116 -3 109
-54 c59 -29 110 -56 113 -60 3 -3 10 -8 16 -10 39 -14 172 -141 212 -202 15
-23 29 -44 33 -47 3 -3 20 -32 38 -65 18 -33 39 -67 47 -76 8 -9 11 -19 7 -23
-4 -4 -3 -10 2 -14 31 -21 135 -352 171 -542 3 -14 11 -46 19 -72 8 -27 11
-48 8 -48 -3 0 -1 -6 5 -12 17 -22 35 -125 23 -132 -9 -6 -14 -65 -13 -146 2
-80 3 -90 14 -90 4 0 8 -6 8 -13 0 -17 36 -50 70 -64 44 -18 107 15 153 80 11
14 18 28 18 32 -1 3 5 13 14 21 8 9 15 21 16 27 0 7 3 23 5 37 3 14 5 33 6 43
1 9 6 17 11 17 4 0 5 6 0 13 -4 6 -6 23 -4 35 4 34 -17 82 -52 119 -30 32 -42
69 -26 79 4 2 6 22 4 44 -2 22 0 40 5 40 4 0 7 17 6 38 -2 20 0 42 3 47 3 6 7
39 8 75 5 129 6 140 14 140 5 0 6 18 4 40 -2 23 -1 38 4 36 4 -3 8 1 8 9 0 8
-5 11 -10 8 -6 -4 -7 -1 -1 8 11 19 15 37 14 79 -1 145 3 199 14 193 6 -4 5 0
-1 9 -7 8 -11 17 -8 20 10 10 10 138 0 143 -6 3 -7 7 0 10 14 7 7 268 -8 292
-4 6 -3 14 1 17 11 7 3 56 -9 56 -4 0 -6 11 -3 25 2 14 0 25 -6 25 -6 0 -8 4
-5 10 3 5 1 19 -6 31 -8 16 -8 20 1 14 9 -6 9 -3 1 12 -6 11 -8 23 -4 26 3 4
1 13 -5 20 -7 8 -9 17 -5 20 3 4 1 7 -6 7 -8 0 -10 7 -6 21 4 13 3 19 -2 16
-5 -3 -9 4 -8 16 3 31 -5 48 -19 40 -6 -4 -4 2 4 12 9 11 10 16 3 11 -10 -5
-13 3 -13 33 0 22 -4 43 -10 46 -6 3 -10 11 -10 16 0 6 5 7 11 3 7 -4 6 3 -2
17 -7 13 -12 27 -11 32 1 4 -3 7 -9 7 -5 0 -7 5 -4 10 3 6 1 10 -5 10 -7 0
-10 6 -7 14 3 8 -1 20 -9 27 -8 7 -13 18 -10 26 3 8 1 11 -4 8 -6 -3 -10 4
-10 17 0 20 -38 87 -70 126 -6 6 -8 12 -5 12 3 0 -6 17 -20 37 -14 21 -25 43
-25 50 0 7 -5 13 -11 13 -5 0 -8 4 -4 9 3 5 -2 16 -10 24 -8 9 -15 20 -15 25
0 6 -13 21 -29 34 -15 13 -36 36 -46 51 -9 15 -21 24 -26 22 -4 -3 -13 3 -18
14 -6 11 -20 23 -31 26 -11 4 -18 10 -15 15 3 5 -9 19 -27 31 -18 13 -28 17
-24 8 5 -7 -4 1 -19 19 -14 17 -32 32 -40 32 -7 0 -15 7 -19 15 -3 8 -11 15
-17 15 -7 0 -20 7 -30 16 -9 8 -23 16 -31 17 -7 2 -24 10 -38 20 -13 9 -28 17
-32 17 -3 0 -36 14 -73 31 -36 16 -74 29 -83 27 -9 -2 -25 5 -34 14 -21 21
-54 24 -61 6 -4 -9 -6 -7 -6 3 -1 11 -18 19 -53 27 -111 23 -241 35 -232 21 2
-4 -11 -6 -31 -5 -19 2 -35 0 -35 -5 0 -5 -10 -5 -22 0 -25 9 -62 -1 -73 -19
-5 -8 -10 -9 -14 -2 -4 6 -19 4 -43 -8 -20 -10 -39 -16 -41 -14 -5 6 -159 -64
-167 -75 -3 -4 -15 -13 -28 -20 -42 -22 -153 -110 -175 -138 -12 -15 -28 -35
-36 -43 -8 -8 -26 -33 -40 -55 -14 -23 -32 -47 -39 -55 -57 -67 -140 -242
-181 -385 -51 -178 -57 -184 -81 -90 -31 124 -68 207 -168 378 -46 77 -134
171 -237 252 -27 22 -52 43 -55 46 -7 8 -179 109 -186 109 -3 0 -40 16 -82 36
-92 44 -206 81 -270 89 -51 7 -194 12 -227 8z m-1099 -2625 l19 -21 -27 17
c-27 17 -27 17 -43 -13 -22 -43 -29 -39 -8 4 19 40 32 43 59 13z m61 -58 c15
-41 2 -37 -18 4 -9 21 -11 32 -4 30 6 -3 16 -18 22 -34z m-85 -84 c12 -9 34
-16 48 -17 14 0 19 -3 12 -6 -33 -13 -103 31 -101 65 0 13 2 12 9 -4 5 -12 19
-29 32 -38z m108 -3 c0 -7 -8 -13 -17 -13 -13 0 -15 2 -5 8 7 5 10 17 6 28 -5
16 -4 16 5 4 6 -8 11 -21 11 -27z m4440 -109 l42 -46 -22 -15 c-26 -19 -70
-26 -70 -12 0 6 -6 7 -12 3 -7 -4 -10 -4 -6 1 4 4 0 13 -9 20 -11 9 -14 18 -8
31 8 18 9 17 12 -4 6 -33 46 -56 72 -42 29 15 26 29 -11 67 -36 37 -48 41 -48
16 0 -9 -3 -14 -6 -10 -8 8 3 37 14 37 5 0 28 -21 52 -46z"/>
</g>
</svg>
