<?xml version="1.0" standalone="no"?>
<!DOCTYPE svg PUBLIC "-//W3C//DTD SVG 20010904//EN"
 "http://www.w3.org/TR/2001/REC-SVG-20010904/DTD/svg10.dtd">
<svg version="1.0" xmlns="http://www.w3.org/2000/svg"
 width="700.000000pt" height="700.000000pt" viewBox="0 0 700.000000 700.000000"
 preserveAspectRatio="xMidYMid meet">
<metadata>
Created by potrace 1.14, written by Peter Selinger 2001-2017
</metadata>
<g transform="translate(0.000000,700.000000) scale(0.100000,-0.100000)"
fill="#000000" stroke="none">
<path d="M1896 5164 c-135 -18 -216 -44 -381 -123 -359 -173 -620 -393 -800
-676 -102 -161 -210 -412 -260 -605 -107 -414 -143 -563 -170 -702 -3 -16 -7
-38 -10 -50 -17 -87 -47 -267 -47 -288 0 -14 -15 -41 -34 -62 -116 -129 -114
-323 5 -447 162 -171 440 -125 538 89 20 44 26 73 27 145 1 50 7 99 13 110 6
11 11 23 11 28 0 4 3 29 8 55 4 26 7 50 6 54 -6 26 134 314 181 373 17 22 47
53 66 70 19 16 46 41 60 55 55 54 192 160 258 198 37 23 136 64 218 93 131 45
161 52 240 54 113 3 273 -24 343 -58 177 -85 450 -350 579 -560 50 -83 89
-199 92 -277 5 -128 29 -267 58 -333 28 -65 72 -80 308 -102 33 -4 70 -8 83
-10 142 -23 696 -24 907 -1 86 9 125 36 140 98 10 40 13 190 4 221 -29 103
-27 258 7 392 18 71 106 254 165 343 71 109 146 182 219 215 76 35 140 56 195
65 53 9 325 9 395 0 173 -23 362 -99 524 -212 90 -62 245 -263 323 -418 69
-136 128 -296 137 -373 10 -90 26 -158 42 -182 8 -13 11 -29 7 -36 -36 -56
-39 -174 -6 -249 25 -55 81 -110 143 -140 64 -32 177 -31 239 1 136 71 200
236 141 368 -11 26 -28 55 -36 64 -11 12 -13 25 -8 41 4 13 8 58 10 100 2 67
6 109 19 179 2 9 6 40 10 69 4 29 8 60 10 69 5 26 14 102 20 166 3 33 8 71 10
85 16 92 22 411 11 535 -24 264 -151 607 -317 855 -78 116 -236 278 -342 349
-311 209 -841 365 -1229 363 -73 -1 -216 -11 -251 -18 -12 -2 -35 -7 -52 -10
-76 -14 -119 -26 -172 -50 -32 -14 -105 -45 -163 -69 -173 -71 -246 -121 -400
-275 -152 -151 -232 -269 -292 -432 -17 -47 -24 -57 -26 -40 -5 30 -52 117
-109 199 -47 67 -155 181 -233 246 -67 56 -235 169 -320 215 -154 83 -456 180
-705 226 -124 23 -279 27 -409 10z"/>
</g>
</svg>
